<svg width="44" height="30" viewBox="0 0 44 30" xmlns="http://www.w3.org/2000/svg">
  <rect width="44" height="30" fill="#ffffff"/>
  <g fill="#b22234">
    <rect y="0" width="44" height="3"/>
    <rect y="6" width="44" height="3"/>
    <rect y="12" width="44" height="3"/>
    <rect y="18" width="44" height="3"/>
    <rect y="24" width="44" height="3"/>
  </g>
  <rect width="20" height="16" fill="#3c3b6e"/>
  <g fill="#ffffff">
    <circle cx="3" cy="3" r="0.8"/>
    <circle cx="7" cy="3" r="0.8"/>
    <circle cx="11" cy="3" r="0.8"/>
    <circle cx="15" cy="3" r="0.8"/>
    <circle cx="19" cy="3" r="0.8"/>
    <circle cx="5" cy="6" r="0.8"/>
    <circle cx="9" cy="6" r="0.8"/>
    <circle cx="13" cy="6" r="0.8"/>
    <circle cx="17" cy="6" r="0.8"/>
    <circle cx="3" cy="9" r="0.8"/>
    <circle cx="7" cy="9" r="0.8"/>
    <circle cx="11" cy="9" r="0.8"/>
    <circle cx="15" cy="9" r="0.8"/>
    <circle cx="19" cy="9" r="0.8"/>
    <circle cx="5" cy="12" r="0.8"/>
    <circle cx="9" cy="12" r="0.8"/>
    <circle cx="13" cy="12" r="0.8"/>
    <circle cx="17" cy="12" r="0.8"/>
  </g>
</svg>
