<svg xmlns="http://www.w3.org/2000/svg" viewBox="0 0 1200 260" role="img" aria-label="Askesis">
  <rect width="1200" height="260" fill="#000000"/>
  <g transform="translate(40 40)">
    <rect width="180" height="180" rx="20" fill="#000000"/>
    <g transform="translate(18 18) scale(1.44)">
      <path fill="#ffffff" d="M16 55h22v4H16z M18 59l-2 5h22l-2-5z M19 64h16v21H19z M17 85h20v5H17z M39 35h22v4H39z M41 39l-2 5h22l-2-5z M42 44h16v41H42z M40 85h20v5H40z M62 15h22v4H62z M64 19l-2 5h22l-2-5z M65 24h16v61H65z M63 85h20v5H63z"/>
    </g>
  </g>
  <g font-family="Arial, sans-serif" font-size="140" font-weight="700">
    <text x="270" y="175" fill="#ffffff">
      <tspan fill="#27ae60">A</tspan><tspan>skes</tspan><tspan fill="#27ae60">I</tspan><tspan>s</tspan>
    </text>
  </g>
</svg>
