<svg xmlns="http://www.w3.org/2000/svg" viewBox="0 0 1200 223" role="img" aria-label="Askesis header unificado">
  <rect width="1200" height="223" fill="#000000"/>

  <rect x="14" y="14" width="1172" height="198" rx="16" fill="#050505"/>
  <rect x="28" y="28" width="730" height="173" rx="14" fill="#0a0a0a"/>
  <rect x="772" y="28" width="400" height="173" rx="14" fill="#0a0a0a"/>

  <path d="M765 28v173" stroke="#1a1a1a" stroke-width="1.5"/>
  <path d="M972 48v132" stroke="#1a1a1a" stroke-width="1.2"/>

  <g transform="translate(56 41)">
    <rect width="144" height="144" rx="16" fill="#0f0f0f" stroke="#2a2a2a" stroke-width="2"/>
    <g transform="translate(14 14) scale(1.18)">
      <path fill="#ffffff" d="M16 55h22v4H16z M18 59l-2 5h22l-2-5z M19 64h16v21H19z M17 85h20v5H17z M39 35h22v4H39z M41 39l-2 5h22l-2-5z M42 44h16v41H42z M40 85h20v5H40z M62 15h22v4H62z M64 19l-2 5h22l-2-5z M65 24h16v61H65z M63 85h20v5H63z"/>
    </g>
  </g>

  <g font-family="Arial, sans-serif" font-weight="700">
    <text x="224" y="152" font-size="122" fill="#ffffff">
      <tspan fill="#27ae60">A</tspan><tspan>skes</tspan><tspan fill="#27ae60">I</tspan><tspan>s</tspan>
    </text>
  </g>

  <g font-family="Arial, sans-serif" fill="#ffffff">
    <text x="800" y="56" font-size="12" fill="#8c9198" font-weight="700">MULTI-PLATFORM</text>

    <g transform="translate(798 70)">
      <circle cx="8" cy="8" r="3.5" fill="#27ae60"/>
      <text x="20" y="12" font-size="13" font-weight="700" fill="#e5e5e5">WEB</text>
    </g>
    <g transform="translate(798 102)">
      <circle cx="8" cy="8" r="3.5" fill="#27ae60"/>
      <text x="20" y="12" font-size="13" font-weight="700" fill="#e5e5e5">IOS (PWA)</text>
    </g>
    <g transform="translate(798 134)">
      <circle cx="8" cy="8" r="3.5" fill="#27ae60"/>
      <text x="20" y="12" font-size="13" font-weight="700" fill="#e5e5e5">ANDROID (PWA)</text>
    </g>
    <g transform="translate(798 166)">
      <circle cx="8" cy="8" r="3.5" fill="#27ae60"/>
      <text x="20" y="12" font-size="13" font-weight="700" fill="#e5e5e5">DESKTOP (PWA)</text>
    </g>

    <text x="992" y="56" font-size="12" fill="#8c9198" font-weight="700">FREE-TIER SERVICES</text>

    <g transform="translate(990 70)">
      <circle cx="8" cy="8" r="3.5" fill="#27ae60"/>
      <text x="20" y="12" font-size="13" font-weight="700" fill="#e5e5e5">GOOGLE GEMINI</text>
    </g>
    <g transform="translate(990 102)">
      <circle cx="8" cy="8" r="3.5" fill="#27ae60"/>
      <text x="20" y="12" font-size="13" font-weight="700" fill="#e5e5e5">VERCEL</text>
    </g>
    <g transform="translate(990 134)">
      <circle cx="8" cy="8" r="3.5" fill="#27ae60"/>
      <text x="20" y="12" font-size="13" font-weight="700" fill="#e5e5e5">ONESIGNAL</text>
    </g>
  </g>
</svg>
